PathFileType	4	(X/Y/Z)	C:/Users/beibeiliu/ov580/test_trc/User3\sequence.50_training_dense_left.trc
DataRate	CameraRate	NumFrames	NumMarkers	Units	OrigDataRate	OrigDataStartFrame	OrigNumFrames
120	120	13	19	mm	120	31	92
Frame#	Time	ThumbCMC			ThumbMCP			ThumbIP			ThumbTip			IndexMCP			IndexPIP			IndexTip			MiddleMCP			MiddlePIP			MiddleTip			RingMCP			RingPIP			RingTip			PinkyMCP			PinkyPIP			PinkyTip			BackHand1			BackHand2			BackHand3	
		X0	Y0	Z0	X1	Y1	Z1	X2	Y2	Z2	X3	Y3	Z3	X4	Y4	Z4	X5	Y5	Z5	X6	Y6	Z6	X7	Y7	Z7	X8	Y8	Z8	X9	Y9	Z9	X10	Y10	Z10	X11	Y11	Z11	X12	Y12	Z12	X13	Y13	Z13	X14	Y14	Z14	X15	Y15	Z15	X16	Y16	Z16	X17	Y17	Z17	X18	Y18	Z18	
30	0.25	-69.747	1.93614	81.7397	-47.1982	9.25397	59.8302	-33.5321	12.1388	38.6988	-21.4309	15.8822	15.9706	-93.7118	33.3792	13.9907	-91.542	34.4732	-10.676	-80.8264	28.4899	-41.1497	-108.933	10.2579	6.12003	-91.0833	-4.3233	-21.1645	-69.7825	-32.9599	-17.1712	-128.65	3.17125	10.2332	-126.377	-0.982839	-18.9005	-110.117	-9.93179	-41.2732	-140.984	-15.4334	29.6225	-151.65	-10.2499	10.8177	-157.678	-4.38015	-17.3424	-133.383	-5.58534	64.5625	-129.833	-16.1382	94.1408	-107.166	10.9778	82.1343	
31	0.258333	-65.6438	-2.05783	84.2987	-43.0082	3.06234	61.5216	-30.976	7.19638	39.8014	-14.882	11.2156	20.9936	-90.8364	26.7515	12.013	-84.0079	30.7043	-11.8332	-78.7716	28.2472	-39.8519	-104.236	7.69286	1.85626	-91.2826	-8.30534	-22.1997	-71.394	-37.5965	-30.9149	-129.211	-1.7003	12.7774	-128.493	-1.63296	-12.6857	-123.059	-10.4832	-41.8034	-142.034	-16.2612	33.0071	-154.823	-8.01025	11.2983	-160.309	-3.61234	-8.62904	-129.6	-1.7354	67.0635	-125.605	-11.4076	96.4952	-97.646	12.3963	80.7271	
32	0.266667	-64.3225	-3.77709	81.9178	-44.3453	-1.64413	61.559	-25.9011	2.41526	39.1228	-15.9012	2.97561	19.0159	-86.097	21.0084	14.2037	-83.4073	23.2698	-15.3754	-80.502	21.5467	-41.8912	-107.151	1.32406	3.69827	-97.7174	-11.1828	-24.1382	-79.7963	-37.2445	-40.7151	-127.628	-5.25574	11.7006	-131.78	-9.42181	-11.9726	-130.651	-17.145	-39.0026	-144.155	-20.0851	30.718	-151.599	-13.3796	9.76063	-161.673	-11.9825	-13.3913	-129.625	-2.60141	64.8792	-124.962	-9.96331	95.8376	-101.001	7.18976	79.2354	
33	0.275	-63.248	-3.98665	81.1024	-43.9292	-4.82845	58.1481	-26.1323	-3.15853	32.7353	-15.8753	-5.57736	18.2597	-90.4731	11.1568	8.65265	-85.3274	13.8444	-19.029	-78.6566	11.1961	-45.2136	-109.605	-3.43401	-1.01195	-105.06	-12.8352	-27.1342	-92.4276	-31.1663	-50.4876	-129.184	-15.7468	7.57213	-133.37	-21.3675	-13.2443	-135.584	-29.2048	-41.2473	-146.731	-30.087	25.1641	-151.855	-30.9206	5.62519	-164.598	-33.8557	-12.2288	-128.153	-5.93102	62.025	-127.813	-10.5727	89.8791	-103.174	6.92193	74.7615	
34	0.283333	-66.6079	-9.01764	79.1228	-43.6923	-12.3796	58.4834	-28.0034	-13.3557	35.6426	-16.6785	-16.5021	15.087	-88.429	6.39803	7.72474	-81.4618	5.89223	-24.4623	-75.6579	2.13828	-44.5505	-115.309	-1.67166	-1.43295	-114.983	-6.31839	-30.4692	-106.949	-17.0846	-61.3599	-133.446	-21.3513	8.77324	-134.885	-23.4944	-17.8391	-138.295	-33.361	-43.7568	-144.009	-41.3288	26.6905	-151.178	-45.9599	2.17514	-158.481	-51.0206	-17.4412	-129.837	-11.3413	60.289	-129.923	-16.0376	92.1543	-105.892	1.72274	72.4831	
35	0.291667	-65.2126	-14.2844	80.8521	-45.2593	-19.4144	55.1384	-30.2506	-23.4728	34.973	-18.4301	-29.9555	14.3113	-85.5764	5.24805	6.69456	-73.6493	2.92683	-23.6983	-68.4248	-5.85139	-43.3323	-120.609	1.41185	1.99556	-117.895	5.48276	-26.6908	-114.745	3.28532	-58.3126	-135.024	-18.8164	9.24699	-137.928	-19.429	-18.8037	-138.044	-27.3831	-42.5954	-146.842	-41.9633	19.5502	-150.244	-49.5356	-0.364623	-156.805	-57.9543	-15.8533	-133.461	-12.1511	58.2847	-133.301	-16.0552	90.0596	-104.31	-1.54281	74.2279	
36	0.3	-65.0219	-22.9746	80.7325	-47.6234	-32.1307	55.7206	-32.1914	-38.9773	35.5056	-15.952	-46.0336	16.1835	-85.1666	-2.97987	5.44888	-75.7701	-5.70725	-19.9948	-69.0463	-18.5542	-43.7376	-114.3	1.98605	5.29097	-111.776	7.5955	-22.0787	-114.223	5.41137	-54.3685	-133.335	-14.6235	12.0456	-136.467	-13.1489	-13.6056	-137.588	-19.7106	-46.0544	-147.396	-34.2677	19.3747	-152.311	-39.3702	0.100547	-162.907	-46.6939	-20.2286	-133.289	-12.4961	61.9182	-132.016	-13.3505	89.2506	-101.849	-4.23695	74.1182	
37	0.308333	-67.351	-31.7855	78.7238	-48.8827	-41.413	54.6897	-34.9577	-50.4324	35.8114	-20.2371	-58.2387	17.5808	-82.0371	-9.83269	1.33353	-73.7586	-16.9414	-23.6028	-67.8633	-32.5068	-44.4842	-110.85	-2.5743	4.58365	-107.726	-0.380208	-25.2666	-107.779	-4.99112	-55.9641	-132.348	-10.4244	12.2039	-131.909	-6.26419	-16.8494	-139.915	-9.45401	-45.1276	-149.651	-24.2404	27.9667	-157.758	-23.2114	5.09858	-162.487	-20.3741	-14.858	-125.751	-9.19599	64.4154	-132.368	-11.5981	91.4324	-94.4125	-5.60911	72.9273	
38	0.316667	-70.7223	-35.7815	78.5673	-49.5233	-47.5241	56.6067	-36.1308	-54.9829	32.4036	-29.8443	-63.2835	15.6754	-81.8547	-15.4971	4.48521	-74.9667	-28.8503	-23.4401	-79.3372	-44.4589	-44.1186	-102.82	-5.6357	1.49888	-104.341	-9.9575	-28.3342	-105.557	-18.6948	-60.4867	-125.462	-4.26322	9.98064	-128.389	0.310521	-14.0363	-132.98	2.1759	-39.949	-145.939	-12.0005	27.367	-154.992	-4.52416	9.28449	-162.336	5.30872	-13.9785	-126.506	-6.50422	63.8712	-124.024	-7.85638	90.8281	-90.9295	-6.37905	74.0535	
39	0.325	-72.3388	-36.4024	77.2783	-57.5622	-46.7029	54.5296	-42.1334	-53.5837	25.3876	-32.5888	-60.3073	4.3466	-84.0719	-19.0332	-0.77975	-81.6479	-31.9292	-19.8633	-85.681	-52.4515	-41.2784	-107.064	-4.70692	-3.07626	-105.84	-12.9816	-29.8206	-107.773	-21.3539	-55.2397	-123.03	0.571682	10.7604	-127.14	5.51334	-14.4288	-132.44	11.1244	-40.9269	-144.371	-2.17885	27.9365	-149.384	7.25078	9.62965	-154.218	17.1481	-12.2888	-121.078	-0.0709981	64.4336	-124.763	-5.32433	91.6259	-88.5832	-7.06998	76.1247	
40	0.333333	-66.5977	-37.7832	74.9707	-57.0789	-45.0408	48.314	-46.2888	-50.1678	20.7245	-39.7221	-56.3702	-0.31952	-84.4038	-12.8423	0.733482	-82.4178	-29.2188	-19.5093	-89.0543	-46.3353	-37.2271	-104.219	0.889225	-0.233128	-103.288	-5.18839	-25.7309	-100.313	-14.2571	-55.9036	-123.272	6.50569	11.6538	-123.045	11.381	-12.1817	-124.776	13.6074	-41.8295	-138.655	0.883835	30.8637	-144.717	11.6281	9.78158	-143.612	20.6176	-12.7623	-123.777	3.53059	63.6298	-122.759	-4.70629	93.7858	-90.0826	-3.86922	77.966	
41	0.341667	-66.0447	-34.0363	76.2631	-59.9021	-42.9673	49.0227	-50.8135	-45.2162	14.2808	-51.2573	-47.028	-6.95823	-80.3673	-1.08919	8.35175	-78.8754	-13.0752	-15.8165	-83.3981	-32.7895	-34.4412	-102.34	10.765	3.38306	-98.763	7.56237	-23.0639	-100.172	0.633666	-53.2633	-122.005	10.2633	14.3296	-117.401	12.8229	-11.8719	-117.28	8.99841	-40.3094	-139.549	3.03354	27.2825	-137.866	8.63307	3.37429	-136.961	7.74071	-24.0584	-122.613	3.07491	67.6463	-121.822	-7.57843	95.0783	-88.995	-3.14767	82.9532	
42	0.35	-67.6503	-27.8253	76.3631	-54.7121	-35.2244	47.7513	-56.1303	-34.6679	15.2943	-56.6859	-37.6288	-5.48752	-77.4914	13.461	15.7465	-74.0758	0.908087	-14.0505	-70.5771	-21.1294	-33.1846	-100.723	20.5096	8.87805	-97.5261	19.7811	-19.0293	-88.5284	9.30714	-51.3694	-120.076	12.191	17.183	-118.448	12.7695	-13.5361	-110.394	0.703026	-38.1599	-135.662	-0.610916	24.4363	-129.309	-0.0886716	-0.955184	-121.309	-11.6382	-22.8686	-124.256	1.39019	72.6044	-126.003	-11.858	97.7288	-93.1761	-0.332554	87.639	
